<svg width="221" height="38" viewBox="0 0 221 38" fill="none" xmlns="http://www.w3.org/2000/svg">
<path d="M18.8993 38C8.44282 38.005 -0.0498348 29.4668 0.000220134 18.9786C0.0502751 8.60225 8.50622 0.0724266 19.0645 0.149227C29.4559 0.226027 37.8951 8.70409 37.8301 19.1957C37.765 29.6488 29.259 38.0234 18.901 37.9983L18.8993 38ZM18.9076 37.2771C28.8652 37.2921 37.0525 29.2431 37.1059 19.1739C37.1593 9.09978 29.0621 0.962306 19.0878 0.873819C8.92501 0.785332 0.802767 8.97456 0.724348 18.9235C0.64426 29.0461 8.83158 37.2821 18.9076 37.2754V37.2771Z" fill="white"/>
<path d="M1.38336 19.0655C1.38003 9.4304 9.18859 1.50663 18.9643 1.53168C28.6399 1.55672 36.4702 9.40702 36.4485 19.1172C36.4251 28.8525 28.5248 36.631 18.8976 36.621C9.21863 36.611 1.38503 28.7623 1.38336 19.0655ZM36.1548 19.0822C36.1699 9.59068 28.4848 1.89564 19.0494 1.82385C9.58069 1.75039 1.73208 9.36862 1.67368 18.9686C1.61528 28.5586 9.35544 36.3371 18.9276 36.3288C28.5432 36.3188 36.1665 28.5002 36.1532 19.0822H36.1548Z" fill="white"/>
<path d="M14.7747 14.1803C14.8765 12.5275 15.9127 11.1501 17.461 10.6275C19.6534 9.88954 22.031 11.2519 22.5132 13.5175C22.645 14.1352 22.5983 14.733 22.3998 15.329C22.1195 16.1755 21.7591 16.9869 21.3753 17.7899C20.8431 18.9069 20.2624 20.0004 19.6701 21.0873C19.4999 21.3979 19.2547 21.6016 18.9026 21.6667C18.4404 21.7518 17.9933 21.5498 17.768 21.1357C17.5044 20.6516 17.2508 20.1624 16.9988 19.6715C16.4032 18.5112 15.8209 17.3425 15.322 16.1354C15.1251 15.6596 14.9332 15.1821 14.8298 14.6745C14.7964 14.5126 14.7914 14.3456 14.7731 14.1803H14.7747ZM20.2741 14.2371C20.2741 13.3639 19.5767 12.6577 18.7041 12.6477C17.8331 12.6376 17.1106 13.3539 17.109 14.2287C17.1056 15.1086 17.8114 15.8215 18.689 15.8215C19.57 15.8215 20.2741 15.1186 20.2758 14.2354L20.2741 14.2371Z" fill="white"/>
<path d="M15.0251 19.1823C15.2136 19.5479 15.4005 19.9102 15.5974 20.2942C14.9083 20.4528 14.2375 20.6064 13.5551 20.765C13.5251 20.9687 13.4934 21.1674 13.465 21.3677C13.43 21.6098 13.3966 21.8519 13.3616 22.094C13.3416 22.2359 13.2898 22.3628 13.2081 22.4813C13.0112 22.7618 12.8193 23.0456 12.6158 23.3411C12.6558 23.3578 12.6858 23.3745 12.7175 23.3812C13.9856 23.6634 15.252 23.9472 16.5217 24.2227C16.7503 24.2728 16.9322 24.3746 17.0873 24.5516C17.6763 25.2244 18.2753 25.8889 18.866 26.5617C18.9377 26.6435 18.9994 26.6636 19.1062 26.6385C20.8365 26.2345 22.5684 25.8371 24.2986 25.4381C24.3436 25.4281 24.387 25.4131 24.4471 25.3964C24.6356 24.4047 24.8225 23.4096 25.0127 22.4062C23.8848 21.8101 22.7652 21.2191 21.6323 20.6197C21.8225 20.2575 22.0094 19.9052 22.1996 19.5429C22.253 19.5679 22.2997 19.5863 22.3448 19.6097C23.5077 20.2241 24.6707 20.8385 25.8336 21.4512C25.852 21.4612 25.8703 21.4712 25.8887 21.4796C26.2157 21.6599 26.3475 21.9304 26.2808 22.2993C26.2407 22.5247 26.1957 22.7484 26.154 22.9738C25.9704 23.9439 25.7819 24.9139 25.6034 25.8839C25.5366 26.2429 25.3397 26.4532 24.9827 26.535C22.9871 26.9925 20.9933 27.455 18.9994 27.9174C18.6858 27.9909 18.4288 27.9174 18.2136 27.672C17.5812 26.9541 16.9422 26.2412 16.3098 25.5233C16.2414 25.4448 16.1663 25.3997 16.0629 25.378C14.6363 25.0658 13.2114 24.7486 11.7865 24.433C11.6213 24.3963 11.4662 24.3446 11.3394 24.2277C11.0474 23.9622 10.999 23.5331 11.2309 23.1909C11.5079 22.7818 11.7882 22.3745 12.0718 21.9704C12.1369 21.8769 12.1703 21.7801 12.1853 21.6699C12.252 21.1857 12.3204 20.7016 12.3989 20.2191C12.4472 19.9235 12.6274 19.7282 12.9161 19.6597C13.5885 19.4995 14.2626 19.3492 14.9366 19.1956C14.9617 19.1906 14.9867 19.1889 15.0234 19.1856L15.0251 19.1823Z" fill="white"/>
<path d="M7.65366 7.3685C7.75544 7.26666 7.84554 7.1765 7.9323 7.08801C8.46121 7.62561 8.98846 8.16154 9.52571 8.70582C9.479 8.75257 9.41893 8.82603 9.34552 8.88113C9.31048 8.90784 9.25041 8.91619 9.20203 8.91285C8.75654 8.86944 8.31272 8.82269 7.8689 8.77761C7.71206 8.76092 7.55355 8.74756 7.39504 8.73254C7.39004 8.74255 7.38503 8.75257 7.38003 8.76259C7.72207 9.10652 8.06578 9.45045 8.41616 9.80273C8.31272 9.89622 8.21594 9.98638 8.13085 10.0632C7.61362 9.54395 7.08303 9.01302 6.52576 8.45539C6.56413 8.42534 6.6292 8.38861 6.67926 8.33685C6.73432 8.27841 6.79105 8.25671 6.8728 8.26506C7.13643 8.29511 7.40005 8.31848 7.66367 8.3452C8.00405 8.38026 8.34442 8.41365 8.72484 8.45205C8.3611 8.07139 8.00571 7.73247 7.65366 7.37017V7.3685Z" fill="white"/>
<path d="M21.1334 4.56523C21.1851 4.08607 21.2385 3.60523 21.2919 3.11605C21.4321 3.09768 21.5622 3.12106 21.7107 3.15111C21.6306 3.89907 21.5505 4.64036 21.4688 5.40002C21.3553 5.38833 21.2519 5.38499 21.1534 5.36162C21.1117 5.3516 21.0767 5.29817 21.05 5.25643C20.7547 4.80398 20.461 4.34986 20.1673 3.8974C20.1373 3.85066 20.1039 3.80391 20.0505 3.72544C19.9738 4.24134 19.9421 4.72885 19.8754 5.22972C19.7385 5.21636 19.6084 5.20301 19.4599 5.18965C19.5417 4.43334 19.6217 3.69205 19.7035 2.93073C19.8153 2.94241 19.9171 2.94241 20.0155 2.96746C20.0572 2.97747 20.0923 3.0309 20.119 3.07264C20.3776 3.46833 20.6345 3.86568 20.8915 4.26137C20.9615 4.36822 21.0316 4.47508 21.1017 4.58193C21.1117 4.57692 21.1217 4.57191 21.1317 4.56857L21.1334 4.56523Z" fill="white"/>
<path d="M10.1881 8.14141C9.77262 7.51533 9.3605 6.89258 8.94171 6.26148C8.97341 6.23644 8.99844 6.21306 9.0268 6.19303C9.27708 6.02607 9.52735 5.85912 9.7793 5.69383C9.9912 5.55525 10.2231 5.46343 10.4784 5.45675C10.9356 5.44673 11.2626 5.66545 11.4795 6.05446C11.6897 6.43178 11.678 6.81077 11.4478 7.17807C11.3494 7.33501 11.2209 7.46357 11.069 7.56541C10.7987 7.74907 10.5251 7.92771 10.2515 8.10969C10.2348 8.11971 10.2164 8.12806 10.1864 8.14141H10.1881ZM9.48898 6.31658C9.78097 6.75734 10.0613 7.17974 10.3516 7.61717C10.5535 7.47693 10.7537 7.35338 10.9339 7.20813C11.1391 7.04117 11.2492 6.81578 11.2059 6.54531C11.1308 6.07616 10.6569 5.62872 10.0446 5.96096C9.85772 6.06113 9.68586 6.18969 9.49065 6.31825L9.48898 6.31658Z" fill="white"/>
<path d="M13.7253 6.13628C13.505 5.42003 13.2848 4.70546 13.0612 3.98421C13.0996 3.96751 13.1296 3.94914 13.1613 3.93913C13.4583 3.8473 13.757 3.75714 14.0556 3.66532C14.2575 3.60354 14.4661 3.58518 14.673 3.62358C15.1485 3.71207 15.4322 4.01092 15.5489 4.46838C15.6724 4.94922 15.4989 5.38831 15.0834 5.66045C14.9716 5.73391 14.8465 5.79235 14.7197 5.83576C14.4144 5.93927 14.1057 6.02776 13.7987 6.12292C13.7803 6.1296 13.7586 6.1296 13.7269 6.13628H13.7253ZM13.5718 4.18789C13.7269 4.69377 13.8771 5.17795 14.0323 5.68216C14.2759 5.59868 14.5111 5.53189 14.7331 5.4384C14.9433 5.34991 15.0868 5.18296 15.1418 4.95589C15.282 4.38323 14.7998 3.87735 14.2208 3.99923C14.0089 4.04431 13.8037 4.12111 13.5718 4.18956V4.18789Z" fill="white"/>
<path d="M17.5044 5.3132C16.4967 5.30485 16.0812 4.45671 16.2998 3.77886C16.3932 3.48836 16.5801 3.27298 16.847 3.12773C17.3276 2.86728 17.9666 2.93072 18.332 3.28467C18.664 3.60523 18.7641 4.00425 18.654 4.44335C18.5456 4.88078 18.2436 5.1429 17.8164 5.26311C17.698 5.2965 17.5712 5.30318 17.5044 5.31487V5.3132ZM18.2669 4.15786C18.2703 3.69705 17.9299 3.34144 17.4827 3.34144C17.0256 3.34144 16.6785 3.67368 16.6735 4.11612C16.6685 4.58526 16.9922 4.9292 17.4477 4.93754C17.9099 4.94589 18.2619 4.60864 18.2669 4.15786Z" fill="white"/>
<path d="M27.2735 7.87443C27.1417 7.79429 27.0416 7.72918 26.9398 7.67074C26.8847 7.63902 26.8831 7.5906 26.8814 7.53718C26.8714 7.33516 26.8564 7.13314 26.8497 6.92945C26.848 6.85933 26.823 6.81592 26.7629 6.78086C26.6194 6.69905 26.481 6.61057 26.3325 6.51874C26.214 6.7074 26.1022 6.88771 25.9821 7.07805C25.8603 7.00125 25.7468 6.93279 25.6234 6.85432C26.0221 6.20653 26.4125 5.5721 26.8097 4.92764C26.8464 4.94601 26.8797 4.95769 26.9081 4.97439C27.1467 5.12131 27.3903 5.26156 27.6222 5.4185C27.7457 5.50197 27.8641 5.60048 27.9592 5.71401C28.1661 5.95944 28.1962 6.23992 28.0544 6.52876C27.9109 6.81759 27.6839 6.98455 27.3486 6.97954C27.3135 6.97954 27.2785 6.97954 27.2268 6.97954C27.2418 7.27505 27.2568 7.55721 27.2735 7.87443ZM26.511 6.22323C26.7179 6.3401 26.9064 6.4553 27.105 6.55547C27.17 6.58886 27.2568 6.59554 27.3319 6.59053C27.5138 6.57885 27.6172 6.45864 27.6873 6.30337C27.7557 6.1481 27.724 6.00618 27.6155 5.8843C27.4437 5.69063 27.2051 5.59547 26.9882 5.45022C26.8263 5.71234 26.6762 5.95944 26.5127 6.2249L26.511 6.22323Z" fill="white"/>
<path d="M32.5343 11.8714C32.8046 11.7077 33.0615 11.5525 33.3352 11.3855C33.4069 11.5024 33.4753 11.6176 33.5554 11.7495C32.908 12.1435 32.2673 12.5342 31.6133 12.9315C31.5382 12.808 31.4681 12.6945 31.3914 12.5692C31.6717 12.3989 31.9403 12.2337 32.2206 12.0617C32.017 11.7244 31.8185 11.3989 31.6133 11.0616C31.3346 11.2303 31.0693 11.3905 30.7957 11.5558C30.6939 11.459 30.6489 11.3304 30.5588 11.2035C31.2062 10.8095 31.8469 10.4205 32.5009 10.0215C32.5777 10.1434 32.6461 10.2552 32.7245 10.3804C32.4559 10.5457 32.1972 10.7043 31.9253 10.8713C32.1288 11.2069 32.3274 11.5324 32.5309 11.8697L32.5343 11.8714Z" fill="white"/>
<path d="M24.5255 3.88916C24.4871 4.01437 24.4571 4.11622 24.4237 4.22975C24.0266 4.11121 23.6445 3.99768 23.2424 3.87747C23.1857 4.06279 23.1306 4.2381 23.0705 4.43511C23.4176 4.54196 23.7563 4.64547 24.1133 4.75399C24.0833 4.86418 24.0549 4.96603 24.0199 5.08791C23.6679 4.98272 23.3275 4.88255 22.9688 4.7757C22.9087 4.97271 22.852 5.1597 22.7886 5.36839C23.1973 5.49361 23.6011 5.61716 24.0149 5.74405C23.9782 5.86259 23.9465 5.9661 23.9115 6.08297C23.3642 5.91768 22.8303 5.7574 22.2797 5.59045C22.4982 4.86251 22.7135 4.14794 22.9354 3.41333C23.466 3.57194 23.9849 3.72888 24.5255 3.89083V3.88916Z" fill="white"/>
<path d="M30.6873 9.50385C30.779 9.60403 30.8625 9.69418 30.9509 9.79269C30.9175 9.82942 30.8908 9.85947 30.8608 9.88618C30.6973 10.0381 30.5304 10.1884 30.3669 10.3403C30.3185 10.3854 30.2751 10.4121 30.2017 10.3954C29.7629 10.2986 29.1322 9.81773 29.1255 9.11484C29.1172 8.29008 29.9832 7.7074 30.7356 8.04131C31.1828 8.23832 31.4631 8.58392 31.5432 9.07477C31.5532 9.13989 31.5432 9.20667 31.5432 9.2818C31.4214 9.3035 31.3063 9.29349 31.1811 9.26844C31.1728 9.19999 31.1661 9.13321 31.1544 9.06809C31.0927 8.68576 30.7173 8.35519 30.3385 8.35519C30.0249 8.35519 29.7929 8.51046 29.6344 8.77091C29.4826 9.02469 29.4909 9.28681 29.6344 9.54225C29.7512 9.74594 29.9198 9.8962 30.155 9.97801C30.3269 9.82274 30.4987 9.66747 30.6806 9.50385H30.6873Z" fill="white"/>
<path d="M7.78542 10.4872C7.69699 10.6208 7.62191 10.731 7.54182 10.8529C7.35328 10.8195 7.16641 10.7878 6.9762 10.7527C6.76263 11.0699 6.55574 11.3788 6.34718 11.691C6.45062 11.8513 6.5474 12.0032 6.65585 12.1718C6.58077 12.2837 6.50402 12.3972 6.41225 12.5341C5.96676 11.8162 5.53295 11.1167 5.09747 10.4138C5.17756 10.2952 5.25264 10.185 5.33106 10.0682C6.14362 10.2068 6.95117 10.3437 7.78876 10.4856L7.78542 10.4872ZM6.61914 10.6826C6.26208 10.6158 5.93339 10.5473 5.56966 10.4906C5.77155 10.8028 5.95341 11.0833 6.14696 11.3838C6.3088 11.1434 6.4573 10.923 6.61914 10.6826Z" fill="white"/>
<path d="M34.6682 14.404C34.5481 14.4508 34.453 14.4875 34.3412 14.5309C34.2311 14.3089 34.1677 14.0734 34.0559 13.8364C33.4686 14.0634 32.8846 14.2872 32.294 14.5142C32.2072 14.4024 32.1905 14.2655 32.1188 14.1285C32.7178 13.8965 33.3051 13.6677 33.9074 13.434C33.8173 13.1986 33.7305 12.9732 33.6404 12.7345C33.7522 12.6894 33.8523 12.6493 33.9741 12.6009C34.2061 13.2003 34.4346 13.793 34.6699 14.4024L34.6682 14.404Z" fill="white"/>
<path d="M3.5708 13.3171C3.63087 13.1835 3.68259 13.0667 3.74432 12.9298C4.32997 13.1902 4.9056 13.4473 5.49124 13.7095C5.65475 13.3472 5.81159 12.9966 5.97677 12.6309C6.08523 12.6777 6.18701 12.7227 6.30547 12.7745C6.08523 13.267 5.86999 13.7495 5.64641 14.2471C4.94898 13.9349 4.26323 13.6277 3.5708 13.3171Z" fill="white"/>
<path d="M28.1211 8.59067C28.0043 8.49216 27.9042 8.40868 27.7957 8.31686C28.2779 7.73084 28.7518 7.15484 29.2373 6.56381C29.3474 6.6523 29.4509 6.73578 29.5693 6.83094C29.0855 7.41863 28.6083 7.99797 28.1211 8.589V8.59067Z" fill="white"/>
<path d="M7.6319 31.0563C7.57183 31.0029 7.52344 30.9595 7.46338 30.906C7.74535 30.5888 8.01899 30.2799 8.29262 29.9727C8.39941 30.0429 8.44223 30.1314 8.4211 30.2382C8.37605 30.4669 8.33267 30.6973 8.28929 30.9261C8.28428 30.9561 8.28428 30.9862 8.28094 31.0379C8.35936 31.0146 8.4211 30.9962 8.48283 30.9762C8.67137 30.9161 8.85824 30.8559 9.04678 30.7958C9.15023 30.7625 9.24311 30.7942 9.32542 30.891C9.05179 31.1982 8.77815 31.5071 8.49618 31.826C8.43611 31.7709 8.38773 31.7275 8.32933 31.6757C8.50285 31.4787 8.6697 31.29 8.83655 31.1014C8.83155 31.093 8.82487 31.0847 8.81987 31.0763C8.73144 31.103 8.64301 31.1281 8.55458 31.1548C8.43611 31.1915 8.31765 31.2333 8.19752 31.2667C8.07572 31.3001 8.03067 31.26 8.05236 31.1348C8.07905 30.9711 8.11076 30.8075 8.13912 30.6439C8.14746 30.6005 8.1508 30.5554 8.13078 30.497C7.96727 30.679 7.80208 30.8626 7.63023 31.0546L7.6319 31.0563Z" fill="white"/>
<path d="M29.576 31.624C29.5126 31.6741 29.4642 31.7125 29.3992 31.7626C29.2406 31.5622 29.0888 31.3685 28.917 31.1498C28.9119 31.2083 28.9053 31.2417 28.9086 31.2717C28.9286 31.447 28.9537 31.6223 28.9703 31.7976C28.9854 31.9562 28.9453 31.9846 28.7918 31.9278C28.64 31.8728 28.4915 31.8143 28.3397 31.7576C28.2979 31.7425 28.2529 31.7308 28.1745 31.7058C28.3497 31.9312 28.5015 32.1265 28.6617 32.3336C28.6066 32.3786 28.5549 32.4204 28.4865 32.4755C28.2279 32.1449 27.9726 31.8193 27.7206 31.4971C27.8391 31.3502 27.8408 31.3502 27.9926 31.4086C28.1912 31.4854 28.3897 31.5622 28.5883 31.639C28.6366 31.6574 28.685 31.6724 28.7601 31.6991C28.7401 31.5322 28.7251 31.3852 28.7067 31.2383C28.6917 31.1198 28.6734 31.0012 28.6583 30.8827C28.6417 30.7274 28.6433 30.7274 28.8068 30.644C29.0571 30.9645 29.3107 31.2867 29.5743 31.624H29.576Z" fill="white"/>
<path d="M31.1527 29.345C30.9592 29.1747 30.7656 29.0027 30.5654 28.8257C30.6171 28.7673 30.6639 28.7122 30.7189 28.6488C31.0393 28.9293 31.3513 29.2014 31.66 29.4719C31.6049 29.5921 31.5281 29.6355 31.4063 29.6255C31.1627 29.6071 30.9175 29.6038 30.6739 29.5954C30.6171 29.5937 30.5604 29.5954 30.4686 29.5954C30.6689 29.8024 30.8808 29.9577 31.0793 30.1514C31.0309 30.2081 30.9859 30.2599 30.9291 30.3284C30.6105 30.0495 30.3001 29.7774 29.9915 29.5053C30.0448 29.375 30.1283 29.3383 30.2551 29.3467C30.5037 29.3633 30.754 29.3667 31.0026 29.375C31.0476 29.375 31.0943 29.375 31.1394 29.375C31.1444 29.365 31.1494 29.3533 31.1527 29.3433V29.345Z" fill="white"/>
<path d="M10.6269 32.3636C10.4934 32.5856 10.3616 32.806 10.2181 33.0448C10.1513 33.0064 10.0913 32.9713 10.0145 32.9279C10.2314 32.5623 10.4433 32.2083 10.6552 31.8527C10.7737 31.8894 10.8371 31.9445 10.8488 32.0714C10.8771 32.3452 10.9255 32.6174 10.9672 32.8895C10.9722 32.9179 10.9823 32.9463 10.9973 33.0097C11.1491 32.7576 11.2843 32.5339 11.4244 32.3018C11.4928 32.3419 11.5495 32.3753 11.6263 32.4187C11.4111 32.7793 11.2008 33.1333 10.9873 33.4922C10.8605 33.4638 10.8021 33.3937 10.787 33.2685C10.7587 33.0214 10.7186 32.7743 10.6819 32.5272C10.6753 32.4771 10.6636 32.4254 10.6552 32.3753C10.6452 32.3719 10.6352 32.3686 10.6252 32.3653L10.6269 32.3636Z" fill="white"/>
<path d="M23.2607 34.9415C23.1439 35.0166 23.0588 35.0016 22.9637 34.9248C22.7301 34.7361 22.4882 34.5575 22.2213 34.3504C22.2613 34.6443 22.3514 34.8964 22.3931 35.1652C22.3164 35.1835 22.253 35.1986 22.1729 35.2186C22.0744 34.8062 21.9793 34.4039 21.8842 34.0032C21.9977 33.938 22.0844 33.9464 22.1779 34.0232C22.3831 34.1901 22.5967 34.3471 22.8069 34.509C22.8386 34.5324 22.872 34.5524 22.932 34.5908C22.867 34.307 22.8102 34.0516 22.7502 33.7861C22.8303 33.7661 22.8937 33.7511 22.9737 33.731C23.0705 34.1401 23.1656 34.5374 23.2624 34.9398L23.2607 34.9415Z" fill="white"/>
<path d="M16.1262 34.4521C16.0779 34.7477 16.0361 35.0031 15.9911 35.2736C15.9143 35.2619 15.8509 35.2502 15.7675 35.2385C15.8192 34.8245 15.891 34.4187 15.9577 34.008C16.0812 33.988 16.1579 34.0214 16.2163 34.1299C16.3365 34.3536 16.47 34.5707 16.5984 34.7911C16.6235 34.8345 16.6518 34.8762 16.7002 34.9547C16.7486 34.6642 16.792 34.4071 16.837 34.1399C16.9138 34.1483 16.9772 34.1566 17.0656 34.1666C17.0005 34.5857 16.9355 34.9931 16.8737 35.3921C16.7252 35.4322 16.6568 35.3654 16.5984 35.2585C16.4766 35.0365 16.3448 34.8178 16.218 34.5974C16.1963 34.559 16.1696 34.5223 16.1246 34.4538L16.1262 34.4521Z" fill="white"/>
<path d="M3.97956 21.8236C4.02294 22.0707 4.09302 22.3078 4.10303 22.5465C4.12305 22.989 3.70926 23.2895 3.29047 23.1576C3.07524 23.0891 2.94342 22.9322 2.88336 22.7218C2.82663 22.5232 2.78659 22.3195 2.73987 22.1208C2.83831 22.059 3.50738 21.8987 3.97956 21.8236ZM2.98013 22.2811C3.01684 22.428 3.03853 22.5616 3.08692 22.6851C3.16367 22.8871 3.35554 22.9806 3.56744 22.9355C3.76766 22.8938 3.91449 22.7302 3.90448 22.5265C3.89781 22.3846 3.85609 22.2443 3.8294 22.0907C3.53741 22.1559 3.26711 22.2176 2.9818 22.2811H2.98013Z" fill="white"/>
<path d="M17.3726 35.4757C17.3976 35.0399 17.4227 34.6325 17.446 34.2101C17.7046 34.2218 17.9499 34.2135 18.1868 34.2736C18.5172 34.3571 18.6824 34.6192 18.644 34.9698C18.6123 35.2636 18.3787 35.484 18.0617 35.4957C17.8398 35.5041 17.6179 35.484 17.3726 35.4757ZM17.6212 35.2853C17.7714 35.2904 17.9099 35.3087 18.0467 35.2954C18.2669 35.272 18.4054 35.1034 18.4138 34.8813C18.4221 34.6726 18.292 34.5073 18.0784 34.4572C17.9483 34.4272 17.8148 34.4222 17.6713 34.4389C17.6546 34.7177 17.6396 34.9898 17.6212 35.2837V35.2853Z" fill="white"/>
<path d="M6.31546 29.2815C5.94505 29.2815 5.62637 28.9576 5.6247 28.5786C5.62303 28.2196 5.90501 27.9341 6.26374 27.9325C6.62914 27.9325 6.95449 28.258 6.9595 28.6354C6.96451 28.9826 6.66584 29.2815 6.31379 29.2831L6.31546 29.2815ZM5.84494 28.6036C5.84494 28.8457 6.05851 29.0611 6.29043 29.0561C6.52235 29.0511 6.73258 28.8457 6.73592 28.617C6.73926 28.3782 6.5307 28.1595 6.29544 28.1579C6.05351 28.1579 5.84328 28.3649 5.84494 28.6036Z" fill="white"/>
<path d="M29.7562 30.7325C29.8313 30.8126 29.9031 30.8878 29.9848 30.9746C30.155 30.8143 30.3185 30.659 30.5054 30.4821C30.5371 30.5388 30.5654 30.5939 30.6038 30.6624C30.4069 30.8494 30.1834 31.0631 29.9514 31.2851C29.6595 30.9796 29.3758 30.6824 29.0771 30.3702C29.2991 30.1582 29.516 29.9511 29.7479 29.7291C29.7896 29.7809 29.828 29.8276 29.873 29.8844C29.7145 30.0363 29.556 30.1916 29.3808 30.3585C29.4642 30.4337 29.536 30.4988 29.6194 30.5739C29.7562 30.4437 29.8947 30.3118 30.0532 30.1615C30.0933 30.2133 30.1283 30.26 30.1633 30.3051C30.0315 30.442 29.8997 30.5789 29.7529 30.7325H29.7562Z" fill="white"/>
<path d="M5.17758 26.0159C5.07747 26.0693 4.99571 26.111 4.8956 26.1644C4.98904 26.3464 5.07747 26.5184 5.1709 26.702C5.11417 26.7338 5.06579 26.7588 5.00239 26.7939C4.90561 26.6136 4.81218 26.4433 4.71374 26.2596C4.61029 26.313 4.52019 26.3598 4.41507 26.4132C4.52353 26.6236 4.62697 26.8256 4.73709 27.0426C4.68037 27.0744 4.63031 27.1027 4.56524 27.1378C4.41674 26.8556 4.27492 26.5852 4.12476 26.2963C4.4985 26.101 4.86557 25.909 5.24599 25.7103C5.38948 25.9825 5.52796 26.2479 5.67145 26.5251C5.61306 26.5585 5.56634 26.5852 5.4996 26.6219C5.39281 26.4216 5.28937 26.2262 5.17591 26.0159H5.17758Z" fill="white"/>
<path d="M34.7149 22.9238C34.7884 22.9455 34.8401 22.9622 34.9035 22.9805C34.8184 23.2861 34.7383 23.5799 34.6515 23.8888C34.2411 23.7752 33.844 23.665 33.4335 23.5515C33.517 23.251 33.597 22.9638 33.6788 22.665C33.7455 22.6817 33.7989 22.6967 33.8673 22.7134C33.8089 22.9338 33.7522 23.1475 33.6921 23.3729C33.7956 23.4029 33.8874 23.428 33.9975 23.4597C34.0542 23.2627 34.1076 23.0757 34.166 22.877C34.2294 22.8954 34.2811 22.9087 34.3462 22.9271C34.2961 23.1258 34.2478 23.3128 34.196 23.5131C34.3095 23.5448 34.4063 23.5716 34.5197 23.6033C34.5848 23.3745 34.6465 23.1575 34.7149 22.9221V22.9238Z" fill="white"/>
<path d="M25.0944 34.3386C24.9226 33.9445 24.7591 33.5706 24.5889 33.1799C24.8725 33.0547 25.1461 32.9361 25.4298 32.8109C25.4582 32.8677 25.4815 32.9178 25.5149 32.9862C25.3097 33.0797 25.1094 33.1699 24.8909 33.2684C24.9326 33.3669 24.971 33.4587 25.016 33.5622C25.2029 33.4821 25.3781 33.4069 25.5599 33.3285C25.58 33.3569 25.5983 33.3819 25.6117 33.4069C25.6233 33.4287 25.63 33.4537 25.645 33.4938C25.4748 33.5923 25.2863 33.649 25.0994 33.7492C25.1428 33.8494 25.1845 33.9479 25.2312 34.0564C25.4498 33.9629 25.6584 33.8728 25.8803 33.7776C25.907 33.836 25.9303 33.8895 25.9604 33.9562C25.6684 34.0848 25.3897 34.2067 25.0928 34.3369L25.0944 34.3386Z" fill="white"/>
<path d="M9.71588 31.4152C9.64914 31.5104 9.59241 31.5889 9.53068 31.6757C9.69419 31.7976 9.85103 31.9161 10.0162 32.038C9.9745 32.0931 9.94113 32.1365 9.90108 32.1899C9.73757 32.073 9.5824 31.9612 9.41388 31.8393C9.34714 31.9278 9.28374 32.0129 9.20866 32.1131C9.40053 32.2533 9.5874 32.3902 9.78095 32.5322C9.74091 32.5889 9.7092 32.634 9.66582 32.6941C9.41054 32.5088 9.16027 32.3268 8.89832 32.1365C9.14692 31.7925 9.39052 31.4586 9.64246 31.1114C9.89274 31.2933 10.1347 31.4703 10.3833 31.6506C10.3616 31.6857 10.3482 31.7124 10.3316 31.7358C10.3132 31.7608 10.2915 31.7825 10.2665 31.8109C10.0863 31.6807 9.91109 31.5538 9.71755 31.4135L9.71588 31.4152Z" fill="white"/>
<path d="M3.59582 24.5367C3.53409 24.5584 3.48236 24.5751 3.41062 24.6001C3.31385 24.2979 3.22041 24.0041 3.1203 23.6969C3.52408 23.5667 3.91284 23.4414 4.32162 23.3095C4.41505 23.6 4.50682 23.8839 4.60359 24.1827C4.54019 24.2061 4.48513 24.2261 4.41672 24.2495C4.34498 24.0308 4.27657 23.8238 4.20315 23.5967C4.10138 23.6301 4.00627 23.6601 3.89949 23.6952C3.95955 23.8905 4.01628 24.0725 4.07635 24.2695C4.01962 24.2896 3.9679 24.3079 3.89949 24.333C3.83442 24.1393 3.77101 23.9557 3.70594 23.7603C3.59916 23.7937 3.50239 23.8238 3.38559 23.8588C3.45567 24.0859 3.52408 24.3046 3.59415 24.535L3.59582 24.5367Z" fill="white"/>
<path d="M6.89613 29.7757C6.80436 29.8559 6.71927 29.9293 6.62416 30.0128C6.57244 29.9561 6.52739 29.9076 6.46899 29.8459C6.77099 29.5537 7.08467 29.2782 7.40002 28.9844C7.54684 29.1497 7.69367 29.2966 7.82048 29.4602C7.97231 29.6572 7.96397 29.8692 7.82215 30.0312C7.68199 30.1931 7.47677 30.2382 7.28823 30.1347C7.21314 30.093 7.1464 30.0312 7.08133 29.9728C7.01626 29.9127 6.9612 29.8459 6.89613 29.7757ZM7.04463 29.6338C7.13306 29.7273 7.20313 29.8125 7.28322 29.8843C7.40002 29.9878 7.51514 29.9878 7.61692 29.8943C7.71703 29.8041 7.73038 29.6789 7.64028 29.5587C7.57354 29.4685 7.49178 29.3901 7.41003 29.2966C7.28489 29.4118 7.17143 29.5153 7.04296 29.6338H7.04463Z" fill="white"/>
<path d="M14.5495 34.6476C14.4811 34.7327 14.4194 34.8095 14.3493 34.8947C14.2809 34.8763 14.2125 34.8579 14.1174 34.8329C14.4094 34.4673 14.6897 34.1183 14.9783 33.7577C15.0517 33.7744 15.1251 33.7928 15.2086 33.8111C15.2853 34.2619 15.3621 34.706 15.4422 35.1701C15.3888 35.1601 15.3554 35.1518 15.3237 35.1484C15.2319 35.1384 15.1869 35.0883 15.1835 34.9948C15.1835 34.9631 15.1752 34.9331 15.1735 34.9013C15.1669 34.8312 15.1318 34.7912 15.0601 34.7745C14.8932 34.7361 14.728 34.691 14.5495 34.6459V34.6476ZM15.1185 34.5992C15.0968 34.4038 15.0734 34.2318 15.025 34.0282C14.8966 34.1951 14.7914 34.3337 14.6746 34.4856C14.8315 34.5257 14.965 34.5608 15.1185 34.5992Z" fill="white"/>
<path d="M32.6594 25.5367C32.6911 25.4715 32.7194 25.4098 32.7478 25.3497H34.1326C34.0976 25.4298 34.0709 25.4933 34.0409 25.565H33.7205C33.6304 25.757 33.5437 25.944 33.4552 26.1344C33.5236 26.2128 33.5887 26.288 33.6638 26.3731C33.6354 26.4349 33.6071 26.4983 33.577 26.5634C33.4769 26.5067 32.8546 25.8088 32.6594 25.535V25.5367ZM32.9347 25.5567C33.0665 25.7036 33.1849 25.8338 33.3201 25.9841C33.3885 25.8338 33.4452 25.7053 33.512 25.5567H32.9363H32.9347Z" fill="white"/>
<path d="M26.1756 33.6993C26.1706 33.6342 26.1673 33.5841 26.1639 33.5207C26.224 33.5157 26.2791 33.5107 26.3341 33.5057C26.4726 33.4923 26.5977 33.4439 26.7029 33.3537C26.7779 33.2886 26.7946 33.2252 26.7629 33.1634C26.7245 33.0883 26.6578 33.0816 26.5894 33.0933C26.4876 33.11 26.3875 33.14 26.2857 33.1601C26.2257 33.1717 26.1623 33.1834 26.1005 33.1801C25.8886 33.1701 25.7485 32.963 25.8085 32.7594C25.8402 32.6542 25.9053 32.5757 25.9904 32.5139C26.1456 32.4021 26.3141 32.3303 26.526 32.3436C26.5327 32.4004 26.5393 32.4555 26.546 32.5189C26.4843 32.5323 26.4259 32.5356 26.3758 32.5557C26.2807 32.5941 26.1856 32.6341 26.0989 32.6876C26.0338 32.7276 26.0038 32.7978 26.0371 32.8796C26.0638 32.9447 26.1256 32.9714 26.2223 32.9547C26.3041 32.9397 26.3842 32.9163 26.4643 32.8996C26.5243 32.8862 26.5861 32.8746 26.6478 32.8695C26.7846 32.8579 26.8931 32.9063 26.9581 33.0315C27.0249 33.1584 27.0182 33.2886 26.9298 33.3971C26.8647 33.4756 26.7829 33.5457 26.6962 33.5975C26.5427 33.6876 26.3758 33.7411 26.1756 33.7027V33.6993Z" fill="white"/>
<path d="M32.4258 26.2513C32.4592 26.293 32.4959 26.3364 32.536 26.3865C32.4926 26.4249 32.4542 26.4566 32.4158 26.49C32.3257 26.5718 32.2607 26.6703 32.229 26.7889C32.2106 26.8557 32.229 26.9124 32.284 26.9558C32.3424 27.0026 32.4025 26.9859 32.4542 26.9441C32.5093 26.8974 32.5593 26.844 32.6127 26.7956C32.6811 26.7321 32.7445 26.6603 32.8213 26.6102C33.0315 26.475 33.2935 26.6052 33.3168 26.8557C33.3218 26.9158 33.3168 26.9809 33.3035 27.041C33.2534 27.2564 33.0682 27.4767 32.848 27.5802C32.8129 27.5352 32.7779 27.4884 32.7345 27.4333C32.7862 27.3966 32.8279 27.3682 32.868 27.3382C32.9865 27.2463 33.0732 27.1328 33.1116 26.9859C33.1299 26.9208 33.1166 26.8607 33.0599 26.8189C32.9998 26.7738 32.9397 26.7922 32.888 26.834C32.8313 26.879 32.7829 26.9341 32.7295 26.9825C32.6644 27.0426 32.6044 27.1094 32.5326 27.1595C32.3191 27.3064 32.0521 27.1796 32.0204 26.9224C32.007 26.8106 32.0354 26.7054 32.0821 26.6052C32.1622 26.4366 32.269 26.3247 32.4242 26.2496L32.4258 26.2513Z" fill="white"/>
<path d="M34.8485 22.6534C34.7884 22.6117 34.7417 22.58 34.69 22.5449C34.7333 22.4831 34.7734 22.4297 34.8068 22.3713C34.8718 22.2611 34.9085 22.1442 34.9002 22.014C34.8952 21.9422 34.8702 21.8787 34.7968 21.8554C34.7167 21.8286 34.6666 21.8787 34.6299 21.9388C34.5949 21.9956 34.5682 22.059 34.5365 22.1191C34.5014 22.1876 34.4681 22.2594 34.4263 22.3262C34.3463 22.4531 34.2311 22.5082 34.0793 22.4764C33.9291 22.4447 33.839 22.3462 33.814 22.2026C33.769 21.9555 33.8274 21.7301 33.9975 21.5198C34.0526 21.5532 34.1027 21.5832 34.146 21.6099C34.096 21.7335 34.0426 21.8403 34.0109 21.9539C33.9942 22.014 33.9992 22.0908 34.0192 22.1509C34.0593 22.2661 34.1744 22.2844 34.2495 22.1876C34.2962 22.1275 34.3262 22.0524 34.3629 21.9839C34.408 21.9021 34.443 21.812 34.4981 21.7402C34.6449 21.5465 34.9286 21.5749 35.0437 21.7902C35.0604 21.822 35.0771 21.857 35.0821 21.8921C35.1288 22.1776 35.052 22.4247 34.8468 22.6551L34.8485 22.6534Z" fill="white"/>
<path d="M24.4254 33.2552C24.387 33.7226 24.3486 34.1667 24.3136 34.6025C24.3002 34.6159 24.2936 34.6259 24.2852 34.6309C24.1606 34.6832 24.0522 34.6587 23.9599 34.5574C23.7213 34.297 23.4843 34.0365 23.2474 33.7744C23.224 33.7493 23.204 33.721 23.1707 33.6776C23.2557 33.6492 23.3275 33.6258 23.4059 33.5991C23.6362 33.8512 23.8614 34.1 24.1117 34.3771C24.1451 34.0081 24.1734 33.6742 24.2051 33.3286C24.2719 33.3069 24.3369 33.2852 24.427 33.2552H24.4254Z" fill="white"/>
<path d="M4.06303 25.3263H5.0658C5.09583 25.3998 5.12086 25.4599 5.15256 25.535C5.11252 25.5434 5.08582 25.5534 5.05746 25.5534C4.66202 25.5484 4.26826 25.5401 3.87282 25.5367C3.80442 25.5367 3.76604 25.5117 3.74769 25.4482C3.73601 25.4082 3.71765 25.3714 3.69763 25.318C4.0063 24.9941 4.31664 24.6685 4.64701 24.3229C4.68538 24.4114 4.71542 24.4799 4.74879 24.5567C4.51353 24.8021 4.28161 25.0442 4.04968 25.2863C4.05469 25.2996 4.0597 25.313 4.0647 25.3263H4.06303Z" fill="white"/>
<path d="M31.0143 28.5904C30.9592 28.5486 30.9142 28.5152 30.8574 28.4718C31.0677 28.183 31.2729 27.9042 31.4864 27.6103C31.5415 27.6487 31.5916 27.6838 31.65 27.7239C31.5699 27.8374 31.4965 27.9426 31.4097 28.0661C31.6917 28.2731 31.9703 28.4768 32.2606 28.6922C32.2139 28.7573 32.1739 28.8141 32.1238 28.8842C31.8368 28.6755 31.5565 28.4718 31.2679 28.2615C31.1828 28.3733 31.1044 28.4752 31.0143 28.592V28.5904Z" fill="white"/>
<path d="M12.7909 32.9914C12.7559 33.0598 12.7292 33.1082 12.6992 33.1667C12.5724 33.1082 12.4556 33.0548 12.3254 32.9964C12.1703 33.3136 12.0184 33.6241 11.8599 33.9464C11.7865 33.9113 11.7231 33.8796 11.648 33.8445C11.8032 33.5223 11.9533 33.2101 12.1068 32.8912C11.9784 32.8261 11.8649 32.766 11.7364 32.7009C11.7665 32.6408 11.7932 32.5873 11.8249 32.5239C12.1469 32.6792 12.4572 32.8311 12.7893 32.9914H12.7909Z" fill="white"/>
<path d="M27.5221 31.6022C27.5621 31.6639 27.5938 31.709 27.6322 31.7675C27.5154 31.8443 27.4036 31.9177 27.2852 31.9979C27.4754 32.2984 27.6589 32.5872 27.8524 32.8911C27.7907 32.9328 27.7323 32.9695 27.6556 33.0213C27.4637 32.7225 27.2768 32.4319 27.0833 32.1314C26.9648 32.2032 26.8547 32.27 26.7329 32.3451C26.6978 32.2934 26.6645 32.245 26.6211 32.1815C26.9231 31.9895 27.2134 31.8025 27.5238 31.6055L27.5221 31.6022Z" fill="white"/>
<path d="M4.77545 27.4918C5.14085 27.2631 5.48623 27.046 5.84663 26.8206C5.89168 26.8924 5.92838 26.9525 5.9701 27.021C5.67143 27.2097 5.38278 27.3916 5.07745 27.5853C5.19091 27.7723 5.30103 27.9509 5.41949 28.1429C5.3661 28.178 5.31604 28.2097 5.25264 28.2515C5.09247 27.9977 4.93896 27.7523 4.77545 27.4918Z" fill="white"/>
<path d="M33.1466 24.4013C33.477 24.5198 33.8007 24.6367 34.1377 24.7586C34.2145 24.5532 34.2862 24.3596 34.3646 24.1475C34.4247 24.1676 34.4797 24.1859 34.5532 24.2093C34.4514 24.4915 34.3529 24.7619 34.2478 25.0524C33.8491 24.9072 33.462 24.7669 33.0665 24.6233C33.0799 24.5783 33.0866 24.5432 33.0982 24.5115C33.1099 24.4781 33.1266 24.4464 33.1466 24.403V24.4013Z" fill="white"/>
<path d="M14.0223 34.5924C13.9956 34.6625 13.9755 34.7143 13.9505 34.7777C13.6685 34.6775 13.3949 34.5824 13.1113 34.4822C13.2514 34.0848 13.3866 33.6992 13.5267 33.2951C13.6018 33.3185 13.6669 33.3385 13.752 33.3653C13.6352 33.7008 13.5217 34.0264 13.4033 34.3687C13.6085 34.4438 13.807 34.5139 14.0223 34.5924Z" fill="white"/>
<path d="M21.6923 35.2953C21.6089 35.3104 21.5455 35.322 21.4604 35.3387C21.392 34.923 21.3252 34.5156 21.2568 34.0983C21.3019 34.0866 21.3353 34.0749 21.3703 34.0699C21.4053 34.0649 21.4404 34.0649 21.4904 34.0615C21.5572 34.4706 21.6222 34.8729 21.6923 35.297V35.2953Z" fill="white"/>
<path d="M55.8465 14.8194C55.8331 14.8895 55.5328 14.9863 55.3009 15.0147V16.9931C55.5879 17.1267 56.05 17.4256 56.639 18.0884V14.2701C56.302 14.6891 55.8648 14.7309 55.8482 14.8194H55.8465ZM56.6373 11.5236V6.13428H86.0196V14.9195C86.2498 14.6441 86.6002 14.4471 87.1108 14.6307V5.04071H55.3009V8.91077C55.9399 9.20962 56.3003 10.4935 56.639 11.5236H56.6373ZM86.0196 31.8907H56.6373V24.2925C56.3537 24.6982 55.8715 25.2441 55.2992 25.5664V33.1078H87.1091V25.9721C86.6403 25.8285 86.3366 25.5614 86.0179 25.4228V31.894L86.0196 31.8907ZM57.3248 21.4008C57.5033 18.4841 55.139 17.3504 53.7225 16.6025C51.6903 15.5273 50.1202 14.9212 49.9584 13.4837C49.8082 12.1497 50.6424 11.2298 51.6586 11.0745C52.4478 10.9526 52.9934 11.2966 53.297 11.9861C53.5156 12.4836 53.9644 13.7275 53.9644 13.7275C53.9644 13.7275 54.0245 14.0714 54.2881 14.3552C54.5217 14.6073 54.7136 14.4971 54.7136 14.4971C54.7136 14.4971 54.8971 14.6207 55.139 14.599C55.3609 14.5789 55.6646 14.3769 55.8482 14.1933C56.3137 14.0313 56.7992 13.7675 56.7391 13.5856C55.99 10.5887 55.5245 9.73887 55.059 9.3532C54.6568 9.02096 54.1279 8.98924 53.8243 9.17122C49.6347 8.52343 47.7326 10.9944 47.3088 12.8359C46.7014 15.4688 48.098 16.9464 50.4456 18.5258C51.9505 19.5376 54.2698 19.9433 54.6552 21.6045C54.8788 22.5712 54.1129 23.2306 52.5912 23.2857C49.1508 23.4076 48.6653 20.8966 48.0579 20.7146C47.6158 20.581 47.5924 21.2606 47.4106 21.5644C47.2287 21.8683 46.4595 22.3341 46.6414 23.0019C47.8761 24.8251 49.6764 25.8168 51.8821 25.9587C54.9588 26.1557 57.1846 23.7115 57.3264 21.4025L57.3248 21.4008ZM89.2565 30.8723C88.6558 30.8723 88.1686 31.3598 88.1686 31.9608C88.1686 32.5619 88.6558 33.0494 89.2565 33.0494C89.8571 33.0494 90.3443 32.5619 90.3443 31.9608C90.3443 31.3598 89.8571 30.8723 89.2565 30.8723ZM89.2565 32.819C88.7826 32.819 88.3972 32.435 88.3972 31.9608C88.3972 31.4867 88.7809 31.1027 89.2565 31.1027C89.732 31.1027 90.1141 31.4867 90.1141 31.9608C90.1141 32.435 89.7303 32.819 89.2565 32.819ZM89.7187 31.697C89.722 31.48 89.5284 31.3998 89.3966 31.3998H88.8477V32.5151H89.0663L89.0629 32.046C89.0629 32.046 89.2448 32.0343 89.2565 32.0577C89.3482 32.2413 89.4901 32.5168 89.4901 32.5168L89.7303 32.5251C89.7303 32.5251 89.5101 32.1228 89.4534 32.0276C89.4417 32.0092 89.7153 31.9942 89.7187 31.697ZM89.0613 31.8673V31.5635H89.3399C89.4066 31.5635 89.5051 31.6035 89.5034 31.7137C89.5017 31.864 89.3549 31.8656 89.3549 31.8656H89.0613V31.8673ZM95.6702 19.7413C95.4266 19.5292 95.1246 20.9367 93.7681 21.8883C93.2442 22.2556 92.4116 22.0503 92.3716 20.8549C92.3165 19.212 93.049 16.4606 93.1007 16.3186C93.4544 15.3436 93.4244 15.377 93.4244 15.2251C93.4244 15.0431 93.1207 14.9212 92.7169 14.7793C92.6001 14.7392 92.4133 14.4554 92.2114 14.4354C91.584 14.3719 91.4222 14.3335 91.2003 14.3536C91.0184 14.3703 90.9367 14.4654 90.7548 14.6775C90.5729 14.8895 90.5112 15.8311 90.1675 16.8028C89.8188 17.7879 87.9417 22.2289 88.0018 21.8649C87.9617 20.6295 88.6091 17.3488 88.7309 16.8028C88.8527 16.2569 89.0346 16.0131 88.7309 15.6074C88.3605 15.1132 88.1035 15.2234 87.2126 15.1416C87.1225 15.1332 86.7871 15.0347 86.5852 15.0615C86.4234 15.0815 86.1698 15.3954 86.1397 15.5473C86.1097 15.6992 86.078 18.0617 85.8561 20.3657C85.6942 22.0469 85.6942 21.925 85.1687 22.1471C84.6815 22.3541 83.7121 21.7414 83.8739 21.6613C85.3922 16.8629 83.692 14.9379 83.4685 14.8578C83.2265 14.7693 82.0519 14.5539 81.7482 14.6357C81.553 14.6875 81.3228 15.4655 81.2827 15.4054C80.7772 14.9195 80.4134 14.9195 80.2299 15.0414C80.048 15.1633 79.7243 14.8594 79.2789 15.0815C79.062 15.19 78.8751 15.7293 78.7733 16.135C78.4096 16.8846 77.8623 19.8815 77.8823 21.8048C77.2566 23.1772 76.5475 23.4644 76.082 23.4644C75.7383 23.3842 75.3813 22.4393 75.3128 22.0469C75.191 21.3591 75.5147 19.0501 75.6566 18.3422C75.7216 18.0149 76.2639 18.2937 76.8495 18.2403C77.5169 18.1802 77.3351 17.0449 77.295 16.6809C77.4168 16.499 77.6788 16.2151 77.6387 15.973C77.5636 15.5223 75.8985 15.7293 75.8785 15.5473C75.8785 14.3319 76.4941 12.9111 76.8495 11.9427C76.9914 11.5587 76.1204 11.2749 75.1693 11.153C74.7305 11.0962 73.9697 11.5086 73.9146 11.7206C73.8129 12.1047 73.4758 14.9579 73.4491 15.2852C73.4091 15.771 72.7617 15.3252 72.5999 15.751C72.4814 16.0615 72.5398 16.6626 72.5398 16.9047C72.5398 17.0466 72.2562 17.5725 72.398 17.8964C72.5198 18.1752 73.0253 17.9782 73.0053 18.1602C72.9786 18.4023 72.7217 20.2455 72.5999 21.3991C70.3741 25.0438 69.8268 22.7765 69.6249 22.1688C69.4264 21.5728 69.8268 18.2603 69.9887 18.1184C70.1288 17.9949 71.1016 18.1385 71.3652 17.9966C71.5854 17.878 71.6088 17.3087 71.527 16.9848C71.507 16.5591 71.9325 16.155 71.8507 15.7894C71.7706 15.4288 70.3307 15.6692 70.3324 15.4655C70.3524 13.1982 71.2634 11.8208 71.1216 11.517C71.0448 11.3517 71.0815 11.2732 69.665 10.9293C69.0059 10.769 68.2684 11.2932 68.1466 11.4752C68.0248 11.6572 67.843 15.2818 67.7012 15.4237C67.566 15.559 67.0538 15.3837 66.8919 15.5456C66.7568 15.6809 66.912 15.9513 66.7701 16.2135C66.5833 16.5591 66.3046 17.4089 66.5265 17.7929C66.6417 17.9915 67.2557 17.7328 67.3157 17.9748C67.3758 18.2169 67.0121 20.1419 67.0121 21.2555C67.0121 21.5594 65.7974 23.9686 64.9481 22.5912C64.5744 21.9868 64.6311 21.2839 64.8063 20.1419C65.1901 17.6309 65.6372 16.6442 65.5354 16.2736C65.4337 15.9096 65.2518 15.6258 64.3625 15.7877C63.7518 15.6859 63.006 15.4037 62.7641 15.8695C62.6006 16.1834 62.8041 17.2052 62.4604 20.0601C62.2218 22.0402 61.6111 23.1589 61.2658 23.4828C60.6184 24.0921 60.4282 22.2873 60.4966 21.4375C60.7802 17.9147 61.2658 16.4155 61.3675 15.8495C61.4276 15.5106 60.7402 15.3436 60.0928 15.3636C59.6673 15.1817 59.2435 14.9997 58.8581 15.1616C58.733 15.2151 58.4844 15.4555 58.3926 15.6976C58.3008 15.9396 58.4493 18.075 58.3109 19.0083C57.9872 21.1954 57.6034 24.5964 59.1501 25.356C61.6412 26.5781 62.4788 22.9568 62.7824 23.2607C62.971 23.4494 63.2663 24.4678 63.8152 24.8C65.2518 25.6699 66.942 23.0403 67.0321 23.3425C67.2757 24.1522 67.9831 24.962 68.8124 25.2659C70.893 26.0272 72.5548 22.9318 72.6566 23.3425C72.9402 24.4761 73.7561 25.1206 74.5987 25.3877C76.5208 25.9954 78.1409 23.2824 78.201 23.4026C78.2928 23.5846 78.8834 24.7633 79.5575 25.0221C80.3467 25.326 81.4596 25.0021 81.5196 25.0021C81.6815 25.0021 81.9785 24.8017 82.4106 24.4761C83.2399 23.8484 83.4217 22.7148 83.5636 22.8567C83.8072 23.0386 84.0674 23.2707 84.6164 23.3024C85.3355 23.3425 85.7293 22.8567 85.7093 23.1205C85.6425 23.9886 85.6592 24.4561 85.8711 24.6999C86.083 24.9436 86.1831 24.8117 86.6202 25.1156C87.2476 25.5513 87.4912 25.4695 87.7131 25.3894C88.1503 25.2308 88.2921 24.2023 88.4222 23.7499C88.7059 22.7582 90.2442 18.9515 90.2843 19.6594C90.321 20.2889 89.3733 22.9802 91.1536 24.2357C92.9255 25.4846 95.2414 22.4743 95.7069 21.8666C95.847 21.683 95.9088 19.9533 95.6668 19.7413H95.6702ZM81.2427 23.7499C80.0714 23.5145 80.3517 17.9999 81.1826 16.4806C81.3478 16.1784 81.0007 17.2703 81.5263 19.5376C82.0386 21.7431 82.5958 21.9918 82.5791 22.1504C82.5391 22.5144 81.9518 23.8918 81.2444 23.7499H81.2427ZM82.9829 20.773C82.1537 19.0918 81.9501 15.4889 82.8811 16.6225C83.4935 17.3671 83.2465 21.3106 82.9829 20.773Z" fill="white"/>
<path d="M110.086 17.7978L109.155 16.5457C108.88 16.6008 108.61 16.6291 108.348 16.6291C107.665 16.6291 107.04 16.4705 106.471 16.1533C105.902 15.8361 105.45 15.392 105.116 14.8227C104.78 14.2534 104.614 13.6139 104.614 12.9027C104.614 12.1914 104.78 11.5537 105.116 10.9877C105.45 10.4217 105.902 9.97926 106.471 9.66204C107.04 9.34483 107.665 9.18622 108.348 9.18622C109.03 9.18622 109.656 9.34483 110.225 9.66204C110.794 9.97926 111.243 10.4217 111.57 10.9877C111.897 11.5537 112.062 12.1914 112.062 12.9027C112.062 13.5238 111.937 14.0914 111.685 14.6056C111.433 15.1199 111.082 15.5456 110.635 15.8845L112.229 17.7995H110.086V17.7978ZM106.946 14.437C107.295 14.8193 107.762 15.0113 108.348 15.0113C108.933 15.0113 109.391 14.8177 109.739 14.432C110.088 14.0463 110.262 13.5354 110.262 12.8993C110.262 12.2632 110.088 11.7457 109.739 11.3617C109.391 10.9793 108.927 10.7873 108.348 10.7873C107.769 10.7873 107.293 10.9777 106.946 11.3567C106.597 11.7356 106.424 12.2499 106.424 12.8993C106.424 13.5488 106.597 14.053 106.946 14.437Z" fill="white"/>
<path d="M118.766 10.7773V16.554H116.997V15.7677C116.817 16.0231 116.575 16.2285 116.268 16.3838C115.961 16.539 115.621 16.6175 115.249 16.6175C114.806 16.6175 114.418 16.519 114.079 16.322C113.74 16.125 113.478 15.8411 113.293 15.4672C113.106 15.0948 113.015 14.6557 113.015 14.1515V10.7773H114.773V13.9145C114.773 14.3018 114.873 14.6007 115.073 14.8144C115.274 15.0281 115.542 15.1349 115.881 15.1349C116.22 15.1349 116.498 15.0281 116.699 14.8144C116.899 14.6007 116.999 14.3001 116.999 13.9145V10.7773H118.768H118.766Z" fill="white"/>
<path d="M120.024 12.0929C120.247 11.6438 120.553 11.2999 120.94 11.0578C121.325 10.8157 121.757 10.6955 122.233 10.6955C122.64 10.6955 122.997 10.779 123.304 10.9443C123.611 11.1095 123.848 11.3266 124.013 11.5971V10.779H125.782V16.5557H124.013V15.7376C123.841 16.0064 123.601 16.2234 123.294 16.3904C122.987 16.5557 122.63 16.6392 122.223 16.6392C121.754 16.6392 121.327 16.5173 120.94 16.2719C120.553 16.0264 120.249 15.6792 120.024 15.2267C119.8 14.7742 119.687 14.2517 119.687 13.659C119.687 13.0663 119.799 12.5437 120.024 12.0963V12.0929ZM123.644 12.6205C123.399 12.3651 123.101 12.2382 122.75 12.2382C122.4 12.2382 122.099 12.3634 121.856 12.6155C121.611 12.8676 121.489 13.2149 121.489 13.6556C121.489 14.0964 121.611 14.447 121.856 14.7058C122.101 14.9646 122.4 15.0948 122.75 15.0948C123.101 15.0948 123.401 14.9679 123.644 14.7125C123.89 14.457 124.012 14.1081 124.012 13.6673C124.012 13.2266 123.89 12.8776 123.644 12.6222V12.6205Z" fill="white"/>
<path d="M132.201 11.3734C132.604 11.8125 132.806 12.4135 132.806 13.1799V16.5541H131.048V13.4169C131.048 13.0313 130.948 12.7307 130.747 12.517C130.547 12.3033 130.278 12.1965 129.94 12.1965C129.601 12.1965 129.332 12.3033 129.132 12.517C128.932 12.7307 128.832 13.0313 128.832 13.4169V16.5541H127.063V10.7773H128.832V11.5437C129.01 11.2882 129.252 11.0862 129.556 10.9376C129.86 10.789 130.2 10.7156 130.58 10.7156C131.256 10.7156 131.797 10.9343 132.199 11.3734H132.201Z" fill="white"/>
<path d="M137.254 15.053V16.554H136.355C135.714 16.554 135.214 16.397 134.855 16.0832C134.496 15.7693 134.318 15.2567 134.318 14.5455V12.2465H133.614V10.7756H134.318V9.36816H136.087V10.7756H137.244V12.2465H136.087V14.5655C136.087 14.7375 136.128 14.8627 136.21 14.9378C136.293 15.0146 136.43 15.0514 136.624 15.0514H137.254V15.053Z" fill="white"/>
<path d="M143.937 10.7773V16.554H142.168V15.7677C141.988 16.0231 141.746 16.2285 141.439 16.3838C141.132 16.539 140.792 16.6175 140.42 16.6175C139.977 16.6175 139.589 16.519 139.25 16.322C138.911 16.125 138.649 15.8411 138.464 15.4672C138.277 15.0948 138.185 14.6557 138.185 14.1515V10.7773H139.944V13.9145C139.944 14.3018 140.044 14.6007 140.244 14.8144C140.445 15.0281 140.713 15.1349 141.052 15.1349C141.391 15.1349 141.669 15.0281 141.87 14.8144C142.07 14.6007 142.17 14.3001 142.17 13.9145V10.7773H143.938H143.937Z" fill="white"/>
<path d="M154.288 11.3683C154.712 11.8024 154.924 12.4067 154.924 13.1798V16.554H153.165V13.4168C153.165 13.0445 153.067 12.7557 152.87 12.552C152.673 12.3483 152.403 12.2465 152.057 12.2465C151.712 12.2465 151.442 12.3483 151.245 12.552C151.048 12.7557 150.949 13.0445 150.949 13.4168V16.554H149.191V13.4168C149.191 13.0445 149.092 12.7557 148.896 12.552C148.699 12.3483 148.428 12.2465 148.083 12.2465C147.738 12.2465 147.467 12.3483 147.27 12.552C147.074 12.7557 146.975 13.0445 146.975 13.4168V16.554H145.206V10.7772H146.975V11.5018C147.154 11.2598 147.389 11.0694 147.679 10.9275C147.97 10.7856 148.297 10.7155 148.662 10.7155C149.096 10.7155 149.485 10.809 149.827 10.9943C150.169 11.1813 150.436 11.4467 150.629 11.7907C150.829 11.4735 151.101 11.2147 151.447 11.0143C151.792 10.814 152.167 10.7138 152.575 10.7138C153.292 10.7138 153.863 10.9309 154.286 11.3666L154.288 11.3683Z" fill="white"/>
<path d="M118.911 21.2405C118.779 20.9984 118.592 20.8147 118.347 20.6862C118.102 20.5593 117.815 20.4942 117.483 20.4942C116.91 20.4942 116.452 20.6828 116.106 21.0585C115.761 21.4341 115.589 21.9367 115.589 22.5644C115.589 23.2339 115.771 23.7565 116.133 24.1322C116.495 24.5078 116.994 24.6965 117.628 24.6965C118.062 24.6965 118.43 24.5863 118.729 24.3659C119.029 24.1455 119.248 23.8283 119.386 23.4142H117.141V22.1103H120.99V23.7565C120.858 24.1989 120.636 24.6096 120.323 24.9886C120.009 25.3676 119.61 25.6748 119.128 25.9102C118.646 26.1457 118.1 26.2625 117.493 26.2625C116.775 26.2625 116.136 26.1056 115.574 25.7917C115.012 25.4778 114.575 25.0404 114.261 24.4828C113.947 23.9235 113.79 23.2857 113.79 22.5678C113.79 21.8499 113.947 21.2104 114.261 20.6478C114.575 20.0851 115.012 19.6477 115.569 19.3321C116.128 19.0183 116.765 18.8613 117.483 18.8613C118.352 18.8613 119.084 19.0717 119.682 19.4924C120.279 19.9132 120.673 20.4958 120.866 21.2421H118.911V21.2405Z" fill="white"/>
<path d="M124.519 20.6461C124.829 20.4641 125.175 20.3723 125.553 20.3723V22.2455H125.068C124.626 22.2455 124.295 22.3407 124.075 22.531C123.855 22.7213 123.745 23.0536 123.745 23.5294V26.2107H121.976V20.434H123.745V21.3974C123.952 21.0802 124.21 20.8297 124.52 20.6461H124.519Z" fill="white"/>
<path d="M127.504 25.9303C127.052 25.6882 126.696 25.3443 126.438 24.8951C126.179 24.446 126.049 23.9218 126.049 23.3207C126.049 22.7197 126.179 22.2038 126.443 21.753C126.704 21.3006 127.063 20.955 127.519 20.7129C127.974 20.4708 128.485 20.3506 129.05 20.3506C129.616 20.3506 130.127 20.4708 130.582 20.7129C131.038 20.955 131.396 21.3006 131.658 21.753C131.92 22.2055 132.052 22.728 132.052 23.3207C132.052 23.9134 131.919 24.4377 131.653 24.8885C131.388 25.3409 131.026 25.6882 130.567 25.9286C130.108 26.1707 129.596 26.2909 129.03 26.2909C128.465 26.2909 127.956 26.1707 127.504 25.9286V25.9303ZM129.893 24.3876C130.132 24.1388 130.25 23.7832 130.25 23.3207C130.25 22.8583 130.135 22.5027 129.903 22.2539C129.671 22.0051 129.387 21.8816 129.049 21.8816C128.71 21.8816 128.418 22.0035 128.189 22.2489C127.963 22.4943 127.847 22.8516 127.847 23.3207C127.847 23.7899 127.959 24.1388 128.184 24.3876C128.408 24.6364 128.69 24.7599 129.027 24.7599C129.364 24.7599 129.653 24.6364 129.891 24.3876H129.893Z" fill="white"/>
<path d="M138.693 20.4341V26.2108H136.924V25.4244C136.744 25.6798 136.502 25.8852 136.195 26.0405C135.888 26.1957 135.548 26.2742 135.175 26.2742C134.733 26.2742 134.345 26.1757 134.006 25.9787C133.667 25.7817 133.405 25.4978 133.22 25.1239C133.033 24.7516 132.941 24.3125 132.941 23.8082V20.4341H134.7V23.5712C134.7 23.9585 134.8 24.2574 135 24.4711C135.2 24.6848 135.469 24.7916 135.808 24.7916C136.147 24.7916 136.425 24.6848 136.625 24.4711C136.826 24.2574 136.926 23.9568 136.926 23.5712V20.4341H138.694H138.693Z" fill="white"/>
<path d="M142.448 20.5994C142.752 20.4341 143.107 20.3506 143.515 20.3506C143.99 20.3506 144.422 20.4708 144.808 20.7129C145.193 20.955 145.498 21.2989 145.724 21.748C145.947 22.1971 146.061 22.718 146.061 23.3107C146.061 23.9034 145.949 24.4277 145.724 24.8785C145.5 25.3309 145.195 25.6798 144.808 25.9236C144.421 26.169 143.99 26.2909 143.515 26.2909C143.114 26.2909 142.76 26.2074 142.453 26.0421C142.146 25.8769 141.906 25.6631 141.734 25.401V28.9622H139.966V20.4324H141.734V21.2505C141.906 20.9817 142.145 20.7646 142.448 20.5977V20.5994ZM143.892 22.2706C143.646 22.0185 143.344 21.8933 142.986 21.8933C142.627 21.8933 142.335 22.0218 142.091 22.2756C141.846 22.531 141.724 22.88 141.724 23.3207C141.724 23.7615 141.846 24.1105 142.091 24.3659C142.337 24.6213 142.635 24.7482 142.986 24.7482C143.336 24.7482 143.638 24.618 143.885 24.3592C144.134 24.1004 144.257 23.7498 144.257 23.3091C144.257 22.8683 144.135 22.521 143.89 22.2689L143.892 22.2706Z" fill="white"/>
<path d="M163.707 10.0453V28.1034H181.754V10.0453H163.707ZM180.889 27.2386H167.59V14.0373H169.036V17.5801H170.415L174.531 12.8986H172.967L170.306 15.9606V12.8586H166.3V27.2402H164.531V10.8718H177.988L171.629 18.4583L176.445 23.9562H174.809L170.688 19.8324H169.036V25.0681H170.209V21.1146L174.19 25.0982H179.221L172.966 18.3898L179.55 10.8718H180.888V27.2402L180.889 27.2386Z" fill="white"/>
<path d="M190.739 18.797L188.588 15.9705V18.797H187.029V12.3976H188.588V15.2058L190.72 12.3976H192.55L190.073 15.533L192.642 18.797H190.739Z" fill="white"/>
<path d="M197.499 17.6667H195.112L194.729 18.797H193.099L195.414 12.3976H197.217L199.531 18.797H197.883L197.501 17.6667H197.499ZM197.097 16.463L196.305 14.1206L195.52 16.463H197.097Z" fill="white"/>
<path d="M203.629 18.797L202.299 16.3812H201.926V18.797H200.367V12.3976H202.982C203.486 12.3976 203.916 12.4861 204.272 12.6614C204.627 12.8383 204.892 13.0788 205.069 13.386C205.246 13.6932 205.333 14.0354 205.333 14.4111C205.333 14.8368 205.213 15.2158 204.972 15.5497C204.732 15.8836 204.378 16.1207 203.911 16.261L205.388 18.7954H203.629V18.797ZM201.926 15.2776H202.892C203.177 15.2776 203.391 15.2075 203.534 15.0672C203.676 14.927 203.748 14.73 203.748 14.4745C203.748 14.2191 203.676 14.0404 203.534 13.9002C203.391 13.76 203.177 13.6898 202.892 13.6898H201.926V15.2759V15.2776Z" fill="white"/>
<path d="M213.687 12.3976V18.797H212.129V14.9587L210.699 18.797H209.442L208.002 14.9504V18.797H206.444V12.3976H208.284L210.08 16.8286L211.857 12.3976H213.687Z" fill="white"/>
<path d="M218.924 17.6667H216.537L216.155 18.797H214.525L216.839 12.3976H218.642L220.957 18.797H219.308L218.926 17.6667H218.924ZM218.524 16.463L217.731 14.1206L216.947 16.463H218.524Z" fill="white"/>
<path d="M192.57 19.6253V26.0247H191.012V23.3901H188.589V26.0247H187.031V19.6253H188.589V22.1313H191.012V19.6253H192.57Z" fill="white"/>
<path d="M195.198 25.6691C194.698 25.3903 194.299 24.9996 194.005 24.4971C193.71 23.9962 193.563 23.4319 193.563 22.8058C193.563 22.1797 193.71 21.6171 194.005 21.1195C194.301 20.622 194.698 20.233 195.198 19.9525C195.699 19.6737 196.251 19.5334 196.852 19.5334C197.452 19.5334 198.005 19.6737 198.505 19.9525C199.006 20.2313 199.401 20.6203 199.69 21.1195C199.979 21.6171 200.122 22.1797 200.122 22.8058C200.122 23.4319 199.977 23.9962 199.685 24.4971C199.393 24.9979 198.999 25.3886 198.5 25.6691C198.003 25.9479 197.452 26.0882 196.852 26.0882C196.251 26.0882 195.699 25.9479 195.198 25.6691ZM198.077 24.1548C198.384 23.8142 198.537 23.3651 198.537 22.8058C198.537 22.2465 198.384 21.789 198.077 21.4518C197.77 21.1145 197.361 20.9459 196.852 20.9459C196.343 20.9459 195.924 21.1129 195.617 21.4468C195.31 21.7807 195.157 22.2331 195.157 22.8058C195.157 23.3785 195.31 23.8226 195.617 24.1598C195.924 24.4971 196.335 24.6657 196.852 24.6657C197.369 24.6657 197.77 24.4954 198.077 24.1548Z" fill="white"/>
<path d="M208.366 19.6253V26.0247H206.808V22.1864L205.378 26.0247H204.121L202.682 22.178V26.0247H201.123V19.6253H202.964L204.759 24.0563L206.536 19.6253H208.366Z" fill="white"/>
<path d="M211.181 20.8741V22.168H213.266V23.3718H211.181V24.7759H213.54V26.0247H209.622V19.6253H213.54V20.8741H211.181Z" fill="white"/>
<path d="M215.746 25.8595C215.375 25.7076 215.078 25.4822 214.858 25.185C214.636 24.8878 214.52 24.5288 214.508 24.1098H216.166C216.19 24.3469 216.273 24.5272 216.412 24.6524C216.552 24.7776 216.734 24.8394 216.959 24.8394C217.184 24.8394 217.373 24.786 217.506 24.6791C217.64 24.5723 217.706 24.4253 217.706 24.2367C217.706 24.0781 217.653 23.9478 217.546 23.8443C217.439 23.7408 217.309 23.6557 217.154 23.5889C216.999 23.5221 216.779 23.447 216.493 23.3601C216.08 23.2333 215.743 23.1047 215.482 22.9778C215.22 22.8509 214.997 22.6623 214.808 22.4118C214.62 22.1631 214.526 21.8375 214.526 21.4368C214.526 20.8408 214.741 20.375 215.174 20.0377C215.604 19.7005 216.166 19.5318 216.859 19.5318C217.551 19.5318 218.132 19.7005 218.562 20.0377C218.993 20.375 219.225 20.8441 219.255 21.4468H217.57C217.558 21.2398 217.481 21.0778 217.341 20.9593C217.201 20.8408 217.022 20.7823 216.804 20.7823C216.615 20.7823 216.463 20.8324 216.348 20.9326C216.233 21.0328 216.175 21.178 216.175 21.365C216.175 21.572 216.271 21.7323 216.467 21.8475C216.66 21.9627 216.964 22.0879 217.378 22.2215C217.79 22.3617 218.127 22.4953 218.384 22.6222C218.642 22.7491 218.864 22.9344 219.053 23.1782C219.241 23.4219 219.335 23.7341 219.335 24.1165C219.335 24.4988 219.241 24.8127 219.056 25.1099C218.871 25.407 218.602 25.6441 218.25 25.8211C217.898 25.9981 217.481 26.0849 217.002 26.0849C216.523 26.0849 216.116 26.0098 215.746 25.8562V25.8595Z" fill="white"/>
</svg>
