<svg width="136" height="26" viewBox="0 0 136 26" fill="none" xmlns="http://www.w3.org/2000/svg">
<path d="M10.0887 10.2441C10.0887 12.5096 7.9954 14.0913 4.99803 14.0913C4.44911 14.0913 3.79547 14.0203 3.2935 13.9047H1.50711L1.49628 13.8758L0 9.64703H0.617531L0.650032 9.73611C1.49146 12.122 3.02867 13.4906 4.86802 13.4906C6.98424 13.4906 8.05799 12.6793 8.05799 11.0807C8.05799 9.56758 6.88192 9.06441 5.10275 8.30484C4.797 8.17603 4.56106 8.07371 4.33114 7.97139C1.68166 6.82421 0.650032 5.65054 0.650032 3.7835C0.650032 1.91647 2.40873 0.456299 4.8307 0.456299C5.42175 0.456299 5.93817 0.516486 6.40763 0.642881H8.08207L9.36408 4.30714H8.76701L8.73451 4.22047C7.95688 2.12231 6.68089 1.05818 4.94145 1.05818C3.09006 1.05818 2.40151 2.27398 2.40151 3.04198C2.40151 4.13861 3.21525 4.89337 5.2123 5.64572C9.27379 7.19496 10.0887 8.55402 10.0887 10.2453V10.2441Z" fill="white"/>
<path d="M20.3505 9.64573L19.0829 13.9047H9.86328V13.322H11.4234V1.24106H9.86328V0.640381H18.5761L18.587 0.669277L19.8774 4.30464H19.2611L19.2286 4.21797C18.4148 2.04758 17.2664 1.24106 14.9901 1.24106H13.7129V6.74828H14.712C16.5357 6.74828 16.6597 6.18853 16.7512 4.57188L16.7572 4.44668H17.3519V9.6337H16.7572L16.7512 9.50851C16.6609 7.9051 16.5357 7.35016 14.712 7.35016H13.7129V13.322H15.6028C17.5385 13.322 18.7675 12.2483 19.7113 9.73241L19.7438 9.64573H20.3505Z" fill="white"/>
<path d="M31.6131 0.641602V1.24228H30.2589L26.1179 14.0913H25.2753L25.2452 13.9998L20.9863 1.24228H19.6296V0.641602H24.9105V1.24228H23.4022L26.5754 10.6894L29.6257 1.24228H28.1162V0.641602H31.6131Z" fill="white"/>
<path d="M42.3279 9.64573L41.0603 13.9047H31.8407V13.322H33.4008V1.24106H31.8407V0.640381H40.5535L40.5644 0.669277L41.8548 4.30464H41.2385L41.206 4.21797C40.3922 2.04758 39.2438 1.24106 36.9675 1.24106H35.6903V6.74828H36.6895C38.5132 6.74828 38.6371 6.18853 38.7286 4.57188L38.7347 4.44668H39.3293V9.6337H38.7347L38.7286 9.50851C38.6384 7.9051 38.5132 7.35016 36.6895 7.35016H35.6903V13.322H37.5802C39.5147 13.322 40.7437 12.2483 41.6887 9.73241L41.7212 9.64573H42.3279Z" fill="white"/>
<path d="M53.9767 0.641602V1.24228H52.4166V14.0913H51.7654L51.7257 14.0299L44.2106 2.50623L44.2286 13.304H45.7694V13.9047H42.0679V13.304H43.6267V1.24228H42.0679V0.641602H45.6527L45.6924 0.70179L51.8159 10.2163V1.24228H50.2559V0.641602H53.9767Z" fill="white"/>
<path d="M66.3313 4.30586H65.7367L65.703 4.21919C64.7809 1.73944 63.3905 1.24228 61.4465 1.24228H61.1166V13.304H62.6767V13.9047H57.2658V13.304H58.8259V1.24228H58.496C56.5628 1.24228 55.1809 1.73944 54.2576 4.21919L54.2251 4.30586H53.6075L54.91 0.641602H65.0505L66.3313 4.30586Z" fill="white"/>
<path d="M78.5298 0.641602V1.24228H77.0456L73.592 7.36342V13.304H75.1508V13.9047H69.7411V13.304H71.3V7.88585L67.3107 1.24228H65.8048V0.641602H71.5299V1.24228H69.9614L73.2693 6.76515L76.3678 1.24228H74.7728V0.641602H78.5298Z" fill="white"/>
<path d="M82.6914 6.97229H76.2043V7.57297H82.6914V6.97229Z" fill="white"/>
<path d="M92.6932 9.64573L91.4257 13.9047H82.2061V13.322H83.7661V1.24106H82.2061V0.640381H90.9189L90.9297 0.669277L92.2202 4.30464H91.6038L91.5713 4.21797C90.7576 2.04758 89.6092 1.24106 87.3329 1.24106H86.0557V6.74828H87.0548C88.8785 6.74828 89.0025 6.18853 89.094 4.57188L89.1 4.44668H89.6947V9.6337H89.1L89.094 9.50851C89.0037 7.9051 88.8785 7.35016 87.0548 7.35016H86.0557V13.322H87.9456C89.8813 13.322 91.1103 12.2483 92.054 9.73241L92.0865 9.64573H92.6932Z" fill="white"/>
<path d="M96.2843 1.2424V13.3222H97.8444V13.9048H92.4347V13.3222H93.9936V1.2424H92.4347V0.641724H97.8444V1.2424H96.2843Z" fill="white"/>
<path d="M111.023 7.39961V8.00028H109.463V13.9047H108.931L108.904 13.8072C108.893 13.7675 108.883 13.7254 108.872 13.6808C108.794 13.3618 108.712 13.0332 108.29 13.0332C107.869 13.0332 107.459 13.209 106.988 13.4124C106.281 13.7158 105.406 14.0913 104.057 14.0913C102.208 14.0913 100.537 13.3606 99.3524 12.0341C98.2293 10.7762 97.6106 9.08608 97.6106 7.27442C97.6106 5.46275 98.2293 3.77146 99.3524 2.51353C100.537 1.18578 102.207 0.456299 104.057 0.456299C104.565 0.456299 105.085 0.516486 105.649 0.642881H107.307L108.609 4.30714H107.992L107.959 4.22047C107.197 2.18009 105.811 1.05818 104.056 1.05818C100.863 1.05818 100.011 4.96559 100.011 7.27561C100.011 7.79684 100.069 9.62055 100.813 11.2107C101.528 12.7359 102.618 13.5099 104.054 13.5099C107.083 13.5099 107.319 11.6369 107.319 11.0627V8.00269H104.459V7.40201H111.021L111.023 7.39961Z" fill="white"/>
<path d="M122.078 1.24228V13.3221H123.638V13.9047H118.227V13.3221H119.787V7.40675H114.335V13.3221H115.876V13.9047H110.484V13.3221H112.044V1.24228H110.484V0.641602H115.876V1.24228H114.335V6.80487H119.787V1.24228H118.227V0.641602H123.638V1.24228H122.078Z" fill="white"/>
<path d="M136 4.30598H135.403L135.37 4.21931C134.448 1.74076 133.058 1.2424 131.114 1.2424H130.784V13.3041H132.343V13.9048H126.933V13.3041H128.492V1.2424H128.162C126.229 1.2424 124.847 1.73956 123.924 4.21931L123.891 4.30598H123.274L124.576 0.641724H134.717L135.999 4.30598H136Z" fill="white"/>
<path d="M42.2898 22.8353H43.3599L43.3515 22.887C43.1264 24.281 42.0213 25.1477 40.4673 25.1477C39.0986 25.1477 37.5 24.4074 37.5 22.3249C37.5 20.2424 39.0986 19.5093 40.4673 19.5093C42.0213 19.5093 43.1264 20.376 43.3515 21.7699L43.3599 21.8217H42.2898L42.2826 21.7856C42.1429 21.1452 41.7156 20.382 40.4685 20.382C39.2214 20.382 38.5569 21.0898 38.5569 22.3237C38.5569 23.5575 39.2539 24.2738 40.4685 24.2738C41.6831 24.2738 42.1429 23.5106 42.2826 22.8702L42.2898 22.8341V22.8353Z" fill="white"/>
<path d="M47.6726 19.5092C45.7779 19.5092 44.5525 20.6142 44.5525 22.3248C44.5525 24.0353 45.7779 25.1476 47.6726 25.1476C49.2219 25.1476 50.7856 24.2737 50.7856 22.3248C50.7856 20.6142 49.5638 19.5092 47.6726 19.5092ZM47.6726 24.2737C46.3991 24.2737 45.6094 23.5261 45.6094 22.3236C45.6094 21.121 46.4003 20.3819 47.6726 20.3819C48.945 20.3819 49.7299 21.1258 49.7299 22.3236C49.7299 23.5213 48.9414 24.2737 47.6726 24.2737Z" fill="white"/>
<path d="M56.7793 24.1521V25.0333H52.2965V19.6151H53.3221V24.1521H56.7793Z" fill="white"/>
<path d="M62.6147 24.1521V25.0333H58.1331V19.6151H59.1587V24.1521H62.6147Z" fill="white"/>
<path d="M68.5191 24.1521V25.0333H63.9689V19.6151H68.4505V20.4963H64.9945V21.8072H68.229V22.6967H64.9945V24.1521H68.5191Z" fill="white"/>
<path d="M74.459 22.8352H75.5291L75.5207 22.8869C75.2956 24.2809 74.1917 25.1476 72.6377 25.1476C71.269 25.1476 69.6704 24.4073 69.6704 22.3248C69.6704 20.2422 71.269 19.5092 72.6377 19.5092C74.1917 19.5092 75.2956 20.3759 75.5207 21.7698L75.5291 21.8216H74.459L74.4506 21.7855C74.3121 21.1451 73.8848 20.3819 72.6365 20.3819C71.3882 20.3819 70.7249 21.0897 70.7249 22.3236C70.7249 23.5574 71.4219 24.2737 72.6365 24.2737C73.8511 24.2737 74.3109 23.5105 74.4506 22.8701L74.459 22.8339V22.8352Z" fill="white"/>
<path d="M81.5121 19.6151V20.4963H79.4945V25.0333H78.4689V20.4963H76.4526V19.6151H81.5121Z" fill="white"/>
<path d="M83.8918 19.6151H82.8662V25.0333H83.8918V19.6151Z" fill="white"/>
<path d="M88.5188 19.5079C86.6241 19.5079 85.3987 20.613 85.3987 22.3235C85.3987 24.0341 86.6241 25.1464 88.5188 25.1464C90.0681 25.1464 91.6318 24.2724 91.6318 22.3235C91.6318 20.613 90.4099 19.5079 88.5188 19.5079ZM88.5188 24.2736C87.2465 24.2736 86.4556 23.5261 86.4556 22.3235C86.4556 21.121 87.2477 20.3819 88.5188 20.3819C89.79 20.3819 90.5761 21.1258 90.5761 22.3235C90.5761 23.5213 89.7876 24.2736 88.5188 24.2736Z" fill="white"/>
<path d="M98.5003 19.6151V25.0333H97.3146L97.3014 25.0152L94.1764 20.9116V25.0333H93.1436V19.6151H94.3293L94.3425 19.632L97.4759 23.738V19.6151H98.5003Z" fill="white"/>
<path d="M135.856 22.1492H102.984V22.5055H135.856V22.1492Z" fill="white"/>
<path d="M33.0164 22.1492H0.144043V22.5055H33.0164V22.1492Z" fill="white"/>
</svg>
